<?xml version="1.0" encoding="UTF-8"?>
<svg width="899px" height="706px" viewBox="0 0 899 706" version="1.1" xmlns="http://www.w3.org/2000/svg" xmlns:xlink="http://www.w3.org/1999/xlink">
    <!-- Generator: Sketch 59.1 (86144) - https://sketch.com -->
    <title>Purple Shapes no shadow Copy 2</title>
    <desc>Created with Sketch.</desc>
    <g id="Scratchpad" stroke="none" stroke-width="1" fill="none" fill-rule="evenodd" opacity="0.505989583">
        <g id="Purple-Shapes-no-shadow-Copy-2" transform="translate(449.500000, 353.500000) scale(-1, 1) translate(-449.500000, -353.500000) " fill="#542281">
            <g id="Purple-Shapes-Copy">
                <path d="M376.215,2.36477504e-14 L705.822,706 L514.077,706 L184.476,2.36477504e-14 L376.215,2.36477504e-14 Z" id="shape-2" opacity="0.5"></path>
                <path d="M9.876,0.999529029 L338.932,705.999529 L147.236,705.999529 L0,390.542529 L9.09494702e-13,1 L9.876,0.999529029 Z M890.651847,31.9274782 L584.041611,688.347512 C581.031369,694.790656 577.329121,700.691033 573.064441,706.001429 L437.684834,706.001212 C417.65646,681.067136 412.258793,645.977272 426.702971,615.047888 L713.523,0.999529029 L898.62482,0.999827438 C897.937277,11.4210436 895.339013,21.8932096 890.651847,31.9274782 Z" id="shape-1"></path>
            </g>
        </g>
    </g>
</svg>